<svg width="102" height="106" viewBox="0 0 102 106" fill="none" xmlns="http://www.w3.org/2000/svg">
<g opacity="0.1">
<path d="M6.15168 93.759V94.4644C6.15168 100.54 11.0765 105.464 17.1517 105.464H91.6778C97.7529 105.464 102.678 100.54 102.678 94.4644V93.3554" stroke="#01102F" stroke-width="4"/>
<path d="M11.8602 38H5.80569C3.70386 38 2 39.7039 2 41.8057V89.7265C2 91.8269 3.7048 93.5246 5.80475 93.5645C21.3714 93.8605 32.9344 96.1097 54.2417 105.291C75.549 96.1097 86.939 94.0335 102.506 93.7375C104.606 93.6976 106.31 91.9999 106.31 89.8995V41.9787C106.31 39.8768 104.607 38.173 102.505 38.173H96.4502" stroke="#01102F" stroke-width="4"/>
<path d="M45.2464 102.005H63.2369C63.2369 106.973 59.2096 111 54.2417 111C49.2737 111 45.2464 106.973 45.2464 102.005Z" fill="#01102F"/>
<path d="M47.4262 77.1515C40.978 70.6157 25.6672 63.6876 18.6487 62.9909" stroke="#01102F" stroke-width="2" stroke-linecap="round"/>
<path d="M19.1651 51.9321C23.4743 52.3599 30.9095 55.1366 37.5 58.7294" stroke="#01102F" stroke-width="2" stroke-linecap="round"/>
<path d="M19.6509 41.5641C24.0726 42.0031 31.7855 44.9152 38.5 48.6444" stroke="#01102F" stroke-width="2" stroke-linecap="round"/>
<path d="M46.9719 86.8287C40.5237 80.2928 25.213 73.3648 18.1944 72.668" stroke="#01102F" stroke-width="2" stroke-linecap="round"/>
<path d="M59.666 78.4311C65.9822 71.7677 81.1514 64.5349 88.1546 63.698" stroke="#01102F" stroke-width="2" stroke-linecap="round"/>
<path d="M87.4172 52.6517C83.4361 53.1274 76.8161 55.67 70.6837 59" stroke="#01102F" stroke-width="2" stroke-linecap="round"/>
<path d="M86.7235 42.2956C82.6362 42.784 75.7671 45.4512 69.5 48.9123" stroke="#01102F" stroke-width="2" stroke-linecap="round"/>
<path d="M60.3126 88.0973C66.6289 81.4338 81.7981 74.201 88.8013 73.3641" stroke="#01102F" stroke-width="2" stroke-linecap="round"/>
<path d="M43.986 41.7239L44.5041 42.0286L45.1043 41.9973L45.1044 41.9973L45.1045 41.9973L45.1055 41.9972L45.1102 41.997L45.1305 41.9959L45.2126 41.9918C45.2856 41.9882 45.3944 41.983 45.5358 41.9764C45.8186 41.9634 46.2319 41.9452 46.7502 41.925C47.7871 41.8845 49.2428 41.836 50.9147 41.8036C54.2733 41.7386 58.448 41.7403 61.851 41.9944L62.475 42.0411L63.0143 41.7237C67.7586 38.9321 73.952 36.0618 79.8244 33.8503C85.5983 31.6758 90.8256 30.229 94 30.0151V81.8695C93.9916 81.88 93.9795 81.8939 93.9624 81.9109C93.9196 81.9534 93.8601 81.9986 93.7891 82.0364C93.7177 82.0746 93.6546 82.0947 93.6124 82.1031C87.024 83.4047 77.6326 87.1396 69.4794 91.3014C65.3851 93.3913 61.5419 95.6198 58.4663 97.7509C56.5441 99.0829 54.8059 100.454 53.5 101.798C52.1941 100.454 50.4559 99.0829 48.5337 97.7509C45.4581 95.6198 41.6149 93.3913 37.5206 91.3014C29.3674 87.1396 19.976 83.4047 13.3876 82.1031C13.3454 82.0947 13.2823 82.0746 13.2109 82.0364C13.1399 81.9986 13.0804 81.9534 13.0376 81.9109C13.0205 81.8939 13.0084 81.88 13 81.8695V30.0158C16.1755 30.2319 21.3998 31.678 27.17 33.8503C33.0444 36.0619 39.2402 38.9322 43.986 41.7239ZM94.0165 81.8448C94.0167 81.8447 94.0159 81.8466 94.0135 81.8505C94.0151 81.8467 94.0162 81.8448 94.0165 81.8448ZM12.9835 81.8448C12.9837 81.8447 12.9849 81.8467 12.9865 81.8506C12.9842 81.8467 12.9834 81.8448 12.9835 81.8448Z" stroke="#01102F" stroke-width="4"/>
<path d="M37 54C37 47.3726 42.3726 42 49 42H59C65.6274 42 71 47.3726 71 54V73H37V54Z" stroke="#01102F" stroke-width="4"/>
<path d="M67 15.5C67 19.3257 65.4174 24.3273 62.7845 28.3683C60.1052 32.4804 56.7547 35 53.5 35C50.2454 35 46.8948 32.4804 44.2155 28.3683C41.5826 24.3273 40 19.3257 40 15.5C40 8.04416 46.0442 2 53.5 2C60.9558 2 67 8.04416 67 15.5Z" stroke="#01102F" stroke-width="4"/>
</g>
</svg>
