<svg width="103" height="75" viewBox="0 0 103 75" fill="none" xmlns="http://www.w3.org/2000/svg">
<g opacity="0.1">
<path d="M6.15167 65.759V66.4644C6.15167 72.5395 11.0765 77.4644 17.1517 77.4644H91.6777C97.7529 77.4644 102.678 72.5395 102.678 66.4644V65.3554" stroke="#01102F" stroke-width="4"/>
<path d="M11.8602 10H5.80569C3.70386 10 2 11.7039 2 13.8057V61.7265C2 63.8269 3.7048 65.5246 5.80475 65.5645C21.3714 65.8605 32.9344 68.1097 54.2417 77.2914C75.549 68.1097 86.939 66.0335 102.506 65.7375C104.606 65.6976 106.31 63.9999 106.31 61.8995V13.9787C106.31 11.8768 104.607 10.173 102.505 10.173H96.4502" stroke="#01102F" stroke-width="4"/>
<path d="M62.7225 74.5048C62.4637 78.9638 58.7656 82.5 54.2417 82.5C49.7177 82.5 46.0197 78.9638 45.7609 74.5048H62.7225Z" fill="#F2F6FE" stroke="#01102F"/>
<path d="M47.4262 49.1515C40.978 42.6157 25.6672 35.6876 18.6487 34.9909" stroke="#01102F" stroke-width="2" stroke-linecap="round"/>
<path d="M47.9426 38.0927C41.4944 31.5569 26.1836 24.6288 19.1651 23.9321" stroke="#01102F" stroke-width="2" stroke-linecap="round"/>
<path d="M48.4284 27.7248C41.9802 21.1889 26.6694 14.2608 19.6509 13.5641" stroke="#01102F" stroke-width="2" stroke-linecap="round"/>
<path d="M46.9719 58.8287C40.5237 52.2928 25.213 45.3648 18.1944 44.668" stroke="#01102F" stroke-width="2" stroke-linecap="round"/>
<path d="M59.666 50.4311C65.9822 43.7677 81.1514 36.5349 88.1546 35.698" stroke="#01102F" stroke-width="2" stroke-linecap="round"/>
<path d="M58.9286 39.3848C65.2448 32.7213 80.414 25.4885 87.4172 24.6517" stroke="#01102F" stroke-width="2" stroke-linecap="round"/>
<path d="M58.2349 29.0287C64.5511 22.3653 79.7203 15.1325 86.7235 14.2956" stroke="#01102F" stroke-width="2" stroke-linecap="round"/>
<path d="M60.3126 60.0973C66.6289 53.4338 81.7981 46.201 88.8013 45.3641" stroke="#01102F" stroke-width="2" stroke-linecap="round"/>
<path d="M51.8618 20.8402L53.5 23.1795L55.1382 20.8402C56.5435 18.8336 59.001 16.6478 62.2077 14.4667C65.3861 12.3049 69.1787 10.2293 73.1258 8.40756C80.9481 4.79727 89.0781 2.31971 94 2.01441V53.8695C93.9916 53.88 93.9795 53.8939 93.9624 53.9109C93.9196 53.9534 93.8601 53.9986 93.7891 54.0364C93.7177 54.0746 93.6546 54.0947 93.6124 54.1031C87.024 55.4047 77.6326 59.1396 69.4794 63.3014C65.3851 65.3913 61.5419 67.6198 58.4663 69.7509C56.5441 71.0829 54.8059 72.4536 53.5 73.7979C52.1941 72.4536 50.4559 71.0829 48.5337 69.7509C45.4581 67.6198 41.6149 65.3913 37.5206 63.3014C29.3674 59.1396 19.976 55.4047 13.3876 54.1031C13.3454 54.0947 13.2823 54.0746 13.2109 54.0364C13.1399 53.9986 13.0804 53.9534 13.0376 53.9109C13.0205 53.8939 13.0084 53.88 13 53.8695V2.01501C17.923 2.32292 26.05 4.79967 33.8697 8.40766C37.818 10.2294 41.6117 12.305 44.791 14.4669C47.9986 16.648 50.4566 18.8337 51.8618 20.8402ZM94.0165 53.8448C94.0167 53.8447 94.0159 53.8466 94.0135 53.8505C94.0151 53.8467 94.0162 53.8448 94.0165 53.8448ZM12.9835 53.8448C12.9837 53.8447 12.9849 53.8467 12.9865 53.8506C12.9842 53.8467 12.9834 53.8448 12.9835 53.8448Z" stroke="#01102F" stroke-width="4"/>
</g>
</svg>
